<svg width="31" height="42" viewBox="0 0 31 42" fill="none" xmlns="http://www.w3.org/2000/svg">
<path d="M15.5039 40.895C16.3093 40.895 16.9749 40.2128 17.0802 39.3278L17.0947 39.0817V2.81545C17.0947 1.81399 16.3825 1.00214 15.5039 1.00214C14.6985 1.00214 14.0329 1.68432 13.9276 2.5694L13.9131 2.81545V39.0817C13.9131 40.0832 14.6253 40.895 15.5039 40.895Z" fill="#F05638" stroke="#F05638" stroke-width="2"/>
<path d="M27.1544 18.7201C27.7743 19.4298 28.7815 19.4323 29.4041 18.7256C29.9701 18.0833 30.0234 17.076 29.5626 16.365L29.409 16.1612L16.6315 1.53385C16.0663 0.886777 15.1794 0.82791 14.5556 1.35729L14.377 1.53375L1.5974 16.1611C0.977437 16.8707 0.979522 18.0189 1.60206 18.7255C2.16801 19.368 3.05189 19.4244 3.67371 18.8962L3.85182 18.7202L15.5048 5.38385L27.1544 18.7201Z" fill="#F05638" stroke="#F05638" stroke-width="2"/>
</svg>
