<svg width="76" height="77" viewBox="0 0 76 77" fill="none" xmlns="http://www.w3.org/2000/svg">
<path d="M38 6.86279C20.52 6.86279 6.33333 21.0495 6.33333 38.5295C6.33333 56.0095 20.52 70.1961 38 70.1961C55.48 70.1961 69.6667 56.0095 69.6667 38.5295C69.6667 21.0495 55.48 6.86279 38 6.86279ZM50.7617 40.2078L41.2617 49.7078C40.7867 50.1828 40.185 50.4045 39.5833 50.4045C38.9817 50.4045 38.38 50.1828 37.905 49.7078C36.9867 48.7895 36.9867 47.2695 37.905 46.3511L43.3517 40.9045H26.9167C25.6183 40.9045 24.5417 39.8278 24.5417 38.5295C24.5417 37.2311 25.6183 36.1545 26.9167 36.1545H43.3517L37.905 30.7078C36.9867 29.7895 36.9867 28.2695 37.905 27.3511C38.8233 26.4328 40.3433 26.4328 41.2617 27.3511L50.7617 36.8511C51.68 37.7695 51.68 39.2895 50.7617 40.2078Z" fill="white"/>
</svg>
