<svg width="25" height="25" viewBox="0 0 25 25" fill="none" xmlns="http://www.w3.org/2000/svg">
<path d="M6.17857 19.7916C6.44765 19.7916 6.67596 19.6929 6.85535 19.5121L12.4999 13.9457L18.1445 19.5121C18.3239 19.6929 18.5522 19.7916 18.8213 19.7916C19.3594 19.7916 19.7916 19.3641 19.7916 18.8216C19.7916 18.5503 19.6774 18.3037 19.4899 18.1146L13.7821 12.4917L19.4899 6.88525C19.6774 6.69618 19.7916 6.44134 19.7916 6.17828C19.7916 5.63572 19.3594 5.20825 18.8213 5.20825C18.5522 5.20825 18.3239 5.3069 18.1445 5.48775L12.4999 11.0468L6.85535 5.48775C6.67596 5.3069 6.44765 5.20825 6.17857 5.20825C5.64041 5.20825 5.20825 5.63572 5.20825 6.17828C5.20825 6.44134 5.32241 6.69618 5.50995 6.88525L11.2177 12.4917L5.50995 18.1146C5.32241 18.3037 5.20825 18.5503 5.20825 18.8216C5.20825 19.3641 5.64041 19.7916 6.17857 19.7916Z" fill="#002340"/>
</svg>
