<svg width="75" height="75" viewBox="0 0 75 75" fill="none" xmlns="http://www.w3.org/2000/svg">
<rect x="0.683594" y="0.088623" width="74.0171" height="74" rx="21.6838" fill="#3AACF2" fill-opacity="0.1"/>
<path d="M48.2839 19.5054L46.171 27.0049L41.9453 29.2106L46.171 31.4164L48.2839 38.0335L50.3968 31.4164L54.6225 29.2106L50.3968 27.0049L48.2839 19.5054Z" fill="#3AACF2"/>
<path d="M34.1429 25.3564L33.1677 29.2571L30.2422 30.2323L33.1677 31.2074L34.1429 35.1081L35.118 31.2074L38.0435 30.2323L35.118 29.2571L34.1429 25.3564Z" fill="#3AACF2"/>
<path d="M20.4922 42.91C20.4922 42.3714 20.9288 41.9348 21.4674 41.9348H24.3929C24.9314 41.9348 25.368 42.3714 25.368 42.91V53.6323C25.368 54.1709 24.9314 54.6075 24.3929 54.6075H21.4674C20.9288 54.6075 20.4922 54.1709 20.4922 53.6323V42.91Z" fill="#3AACF2"/>
<path d="M31.9087 42.1182C32.8174 41.7039 35.0386 42.1182 35.0386 42.1182L41.5002 43.568C41.5002 43.568 43.1157 44.0858 44.6301 44.0858C46.1446 44.0858 45.2393 46.1583 44.2263 46.8819C43.2133 47.6056 42.4764 47.5664 42.4764 47.5664L37.2598 47.5033C37.2598 47.5033 41.8032 48.3318 43.5195 48.4353C44.389 48.4878 45.8803 47.8759 47.5471 47.1919C49.1708 46.5257 50.9609 45.7912 52.5053 45.5357C55.6352 45.0178 56.14 47.8139 55.1303 48.8495C54.1207 49.8851 46.0436 53.8203 44.6301 54.3381C43.5232 54.7437 42.1842 54.609 40.6734 54.4572C40.255 54.4151 39.8234 54.3717 39.38 54.3381C37.6156 54.2044 36.2674 53.7758 34.9327 53.3514C33.502 52.8967 32.0871 52.4469 30.1923 52.3705C29.5567 52.3449 28.0687 52.4236 27.3203 52.4673V43.8269C28.6133 43.3669 31.232 42.4266 31.9087 42.1182Z" fill="#3AACF2"/>
</svg>
