<svg width="77" height="76" viewBox="0 0 77 76" fill="none" xmlns="http://www.w3.org/2000/svg">
<rect x="0.970581" y="0.088623" width="75.902" height="75.8844" rx="21.6838" fill="white"/>
<path fill-rule="evenodd" clip-rule="evenodd" d="M24.7089 21V51C24.7089 52.6569 26.052 54 27.7089 54H40.7089V50.4649C39.5133 49.7733 38.7089 48.4806 38.7089 47C38.7089 44.7909 40.4998 43 42.7089 43C44.918 43 46.7089 44.7909 46.7089 47C46.7089 48.4806 45.9045 49.7733 44.7089 50.4649V54H49.7089C51.3658 54 52.7089 52.6569 52.7089 51V21C52.7089 19.3432 51.3658 18 49.7089 18H27.7089C26.052 18 24.7089 19.3432 24.7089 21ZM42.7089 49C43.8135 49 44.7089 48.1046 44.7089 47C44.7089 45.8954 43.8135 45 42.7089 45C41.6043 45 40.7089 45.8954 40.7089 47C40.7089 48.1046 41.6043 49 42.7089 49ZM32.7089 25C32.7089 24.4477 33.1566 24 33.7089 24H43.7089C44.2612 24 44.7089 24.4477 44.7089 25C44.7089 25.5523 44.2612 26 43.7089 26H33.7089C33.1566 26 32.7089 25.5523 32.7089 25ZM29.7089 30C29.1566 30 28.7089 30.4477 28.7089 31C28.7089 31.5523 29.1566 32 29.7089 32H47.7089C48.2612 32 48.7089 31.5523 48.7089 31C48.7089 30.4477 48.2612 30 47.7089 30H29.7089ZM28.7089 35C28.7089 34.4477 29.1566 34 29.7089 34H47.7089C48.2612 34 48.7089 34.4477 48.7089 35C48.7089 35.5523 48.2612 36 47.7089 36H29.7089C29.1566 36 28.7089 35.5523 28.7089 35ZM29.7089 38C29.1566 38 28.7089 38.4477 28.7089 39C28.7089 39.5523 29.1566 40 29.7089 40H47.7089C48.2612 40 48.7089 39.5523 48.7089 39C48.7089 38.4477 48.2612 38 47.7089 38H29.7089Z" fill="#70C953"/>
<path d="M40.7089 58V54H44.7089V58L42.7089 56.5L40.7089 58Z" fill="#70C953"/>
</svg>
