<svg width="21" height="21" viewBox="0 0 21 21" fill="none" xmlns="http://www.w3.org/2000/svg">
<path fill-rule="evenodd" clip-rule="evenodd" d="M10.5 14.875C12.25 14.875 15.75 10.7745 15.75 7.875C15.75 4.97551 13.3995 2.625 10.5 2.625C7.60051 2.625 5.25 4.97551 5.25 7.875C5.25 10.7745 8.75 14.875 10.5 14.875ZM10.5 9.625C11.4665 9.625 12.25 8.8415 12.25 7.875C12.25 6.9085 11.4665 6.125 10.5 6.125C9.5335 6.125 8.75 6.9085 8.75 7.875C8.75 8.8415 9.5335 9.625 10.5 9.625Z" fill="white"/>
<path fill-rule="evenodd" clip-rule="evenodd" d="M6.16233 13.2422C5.34363 13.4449 4.60114 13.9037 4.05062 14.5643L3.60865 15.0946C2.5231 16.3973 3.44941 18.375 5.14509 18.375H15.8549C17.5506 18.375 18.4769 16.3973 17.3914 15.0946L16.9494 14.5643C16.3989 13.9037 15.6564 13.4449 14.8377 13.2422C14.8291 13.2531 14.8206 13.264 14.812 13.2748C14.2102 14.0383 13.5291 14.7279 12.845 15.2398C12.2126 15.7131 11.3769 16.1875 10.5 16.1875C9.62309 16.1875 8.78743 15.7131 8.15501 15.2398C7.4709 14.7279 6.78978 14.0383 6.18798 13.2748C6.17943 13.264 6.17088 13.2531 6.16233 13.2422Z" fill="white"/>
</svg>
