<svg width="26" height="27" viewBox="0 0 26 27" fill="none" xmlns="http://www.w3.org/2000/svg">
<path opacity="0.4" d="M2.14282 7.94871C2.14282 5.58183 4.06156 3.66309 6.42845 3.66309H19.2853C21.6522 3.66309 23.5709 5.58183 23.5709 7.94871V18.6628C23.5709 21.0297 21.6522 22.9484 19.2853 22.9484H6.42845C4.06156 22.9484 2.14282 21.0297 2.14282 18.6628V7.94871Z" fill="#0260AE"/>
<path fill-rule="evenodd" clip-rule="evenodd" d="M5.75992 8.5747C6.00609 8.20545 6.50499 8.10567 6.87425 8.35184L10.9255 11.0526C12.0951 11.8324 13.6188 11.8324 14.7885 11.0526L18.8397 8.35184C19.2089 8.10567 19.7078 8.20545 19.954 8.5747C20.2002 8.94396 20.1004 9.44286 19.7311 9.68903L15.6799 12.3898C13.9705 13.5295 11.7434 13.5295 10.034 12.3898L5.98279 9.68903C5.61353 9.44286 5.51375 8.94396 5.75992 8.5747Z" fill="#0260AE"/>
</svg>
