<svg width="21" height="21" viewBox="0 0 21 21" fill="none" xmlns="http://www.w3.org/2000/svg">
<path d="M1.75 6.125C1.75 4.192 3.317 2.625 5.25 2.625H15.75C17.683 2.625 19.25 4.192 19.25 6.125V14.875C19.25 16.808 17.683 18.375 15.75 18.375H5.25C3.317 18.375 1.75 16.808 1.75 14.875V6.125Z" fill="white"/>
<path fill-rule="evenodd" clip-rule="evenodd" d="M4.70404 6.63605C4.90508 6.33448 5.31253 6.25299 5.61409 6.45404L8.92264 8.65974C9.87786 9.29655 11.1223 9.29655 12.0775 8.65974L15.386 6.45404C15.6876 6.25299 16.0951 6.33448 16.2961 6.63605C16.4971 6.93761 16.4157 7.34506 16.1141 7.5461L12.8055 9.7518C11.4095 10.6825 9.59068 10.6825 8.1946 9.7518L4.88605 7.5461C4.58448 7.34506 4.50299 6.93761 4.70404 6.63605Z" fill="#3AACF2"/>
</svg>
