<svg width="72" height="72" viewBox="0 0 72 72" fill="none" xmlns="http://www.w3.org/2000/svg">
<rect width="72" height="72" rx="16" fill="#ECF7FE"/>
<path d="M30.5 38C30.5 40.21 28.71 42 26.5 42C24.29 42 22.5 40.21 22.5 38C22.5 35.79 24.29 34 26.5 34C28.71 34 30.5 35.79 30.5 38Z" fill="#3AACF2"/>
<path fill-rule="evenodd" clip-rule="evenodd" d="M26.5 40C27.6054 40 28.5 39.1054 28.5 38C28.5 36.8946 27.6054 36 26.5 36C25.3946 36 24.5 36.8946 24.5 38C24.5 39.1054 25.3946 40 26.5 40ZM26.5 42C28.71 42 30.5 40.21 30.5 38C30.5 35.79 28.71 34 26.5 34C24.29 34 22.5 35.79 22.5 38C22.5 40.21 24.29 42 26.5 42Z" fill="#3AACF2"/>
<path d="M18 48.5455C18 45.5227 23.6631 44 26.5 44C29.3369 44 35 45.5227 35 48.5455V54H18V48.5455Z" fill="#3AACF2"/>
<path fill-rule="evenodd" clip-rule="evenodd" d="M20.3342 47.9834C20.0183 48.2952 20 48.4741 20 48.5455V52H33V48.5455C33 48.4741 32.9817 48.2952 32.6658 47.9834C32.3323 47.6542 31.7814 47.3011 31.0262 46.9776C29.5068 46.3266 27.65 46 26.5 46C25.35 46 23.4932 46.3266 21.9738 46.9776C21.2186 47.3011 20.6677 47.6542 20.3342 47.9834ZM26.5 44C23.6631 44 18 45.5227 18 48.5455V54H35V48.5455C35 45.5227 29.3369 44 26.5 44Z" fill="#3AACF2"/>
<path d="M49.5 38C49.5 40.21 47.71 42 45.5 42C43.29 42 41.5 40.21 41.5 38C41.5 35.79 43.29 34 45.5 34C47.71 34 49.5 35.79 49.5 38Z" fill="#3AACF2"/>
<path fill-rule="evenodd" clip-rule="evenodd" d="M45.5 40C46.6054 40 47.5 39.1054 47.5 38C47.5 36.8946 46.6054 36 45.5 36C44.3946 36 43.5 36.8946 43.5 38C43.5 39.1054 44.3946 40 45.5 40ZM45.5 42C47.71 42 49.5 40.21 49.5 38C49.5 35.79 47.71 34 45.5 34C43.29 34 41.5 35.79 41.5 38C41.5 40.21 43.29 42 45.5 42Z" fill="#3AACF2"/>
<path d="M40 36C40 38.21 38.21 40 36 40C33.79 40 32 38.21 32 36C32 33.79 33.79 32 36 32C38.21 32 40 33.79 40 36Z" fill="#3AACF2"/>
<path fill-rule="evenodd" clip-rule="evenodd" d="M36 38C37.1054 38 38 37.1054 38 36C38 34.8946 37.1054 34 36 34C34.8946 34 34 34.8946 34 36C34 37.1054 34.8946 38 36 38ZM36 40C38.21 40 40 38.21 40 36C40 33.79 38.21 32 36 32C33.79 32 32 33.79 32 36C32 38.21 33.79 40 36 40Z" fill="#3AACF2"/>
<path d="M35 24.8333C35 22.164 32.836 20 30.1667 20H26.9983C24.2378 20 22 22.2378 22 24.9983C22 27.6881 24.1286 29.8956 26.8167 29.9933L27 30V32C27 32 35 30.8333 35 24.8333Z" fill="#3AACF2"/>
<path d="M38 23.2361C38 20.3443 40.3443 18 43.2361 18H49C51.7614 18 54 20.2386 54 23C54 25.7614 51.7614 28 49 28H47V31C47 31 38 29.7361 38 23.2361Z" fill="#3AACF2"/>
<path d="M37 48.5455C37 45.5227 42.6631 44 45.5 44C48.3369 44 54 45.5227 54 48.5455V54H37V48.5455Z" fill="#3AACF2"/>
<path fill-rule="evenodd" clip-rule="evenodd" d="M39.3342 47.9834C39.0183 48.2952 39 48.4741 39 48.5455V52H52V48.5455C52 48.4741 51.9817 48.2952 51.6658 47.9834C51.3323 47.6542 50.7814 47.3011 50.0262 46.9776C48.5068 46.3266 46.65 46 45.5 46C44.35 46 42.4932 46.3266 40.9738 46.9776C40.2186 47.3011 39.6677 47.6542 39.3342 47.9834ZM45.5 44C42.6631 44 37 45.5227 37 48.5455V54H54V48.5455C54 45.5227 48.3369 44 45.5 44Z" fill="#3AACF2"/>
<path fill-rule="evenodd" clip-rule="evenodd" d="M35.9972 47V46.5455C35.9972 44.8677 34.1498 43.652 31.9922 42.9024C33.1005 42.3829 34.4539 42 35.9972 42C37.5405 42 38.8939 42.3829 40.0022 42.9024C37.8446 43.652 35.9972 44.8677 35.9972 46.5455V47Z" fill="#3AACF2"/>
<path fill-rule="evenodd" clip-rule="evenodd" d="M35.9972 47V46.5455C35.9972 45.6516 36.5216 44.8889 37.3378 44.258C37.3839 44.2224 37.4308 44.1872 37.4787 44.1525C38.1749 43.6469 39.0589 43.2301 40.0022 42.9024C39.1494 42.5027 38.1516 42.1838 37.0338 42.058C36.6988 42.0204 36.353 42 35.9972 42C35.6414 42 35.2956 42.0204 34.9606 42.058C33.8428 42.1838 32.845 42.5027 31.9922 42.9024C32.9355 43.2301 33.8195 43.6469 34.5157 44.1525C34.5636 44.1872 34.6105 44.2224 34.6566 44.258C35.4728 44.8889 35.9972 45.6516 35.9972 46.5455V47Z" fill="#3AACF2"/>
</svg>
