<svg width="72" height="72" viewBox="0 0 72 72" fill="none" xmlns="http://www.w3.org/2000/svg">
<rect width="72" height="72" rx="16" fill="#ECF7FE"/>
<path fill-rule="evenodd" clip-rule="evenodd" d="M35 25V22H37V25H40V27H37V30H35V27H32V25H35ZM16.6489 32.0637C16.1318 32.2576 15.8698 32.834 16.0637 33.3511L18.9544 41.0596L17.2192 48H17C16.4477 48 16 48.4477 16 49C16 49.5523 16.4477 50 17 50H17.9791C17.9936 50.0003 18.008 50.0003 18.0224 50H29.9769C29.992 50.0003 30.007 50.0003 30.0221 50H41.9779C41.993 50.0003 42.0081 50.0003 42.0231 50H53.9776C53.9867 50.0002 53.9959 50.0003 54.0051 50.0002L54.0209 50H55C55.5523 50 56 49.5523 56 49C56 48.4477 55.5523 48 55 48H54.7808L53.0457 41.0596L55.9364 33.3511C56.1303 32.834 55.8683 32.2576 55.3512 32.0637C54.834 31.8698 54.2576 32.1318 54.0637 32.6489L53.788 33.3841C53.671 33.2342 53.5101 33.1159 53.3163 33.0513C52.7923 32.8767 52.226 33.1598 52.0513 33.6838L51.2793 36H42V38H44V40H43C42.4477 40 42 40.4477 42 41C42 41.539 42.4264 41.9783 42.9602 41.9992L41.2457 48H30.7543L29.0398 41.9992C29.5737 41.9783 30 41.539 30 41C30 40.4477 29.5523 40 29 40H28V38H30V36H20.7208L19.9487 33.6838C19.7741 33.1598 19.2077 32.8767 18.6838 33.0513C18.4899 33.1159 18.329 33.2342 18.2121 33.3841L17.9364 32.6489C17.7424 32.1318 17.166 31.8698 16.6489 32.0637ZM46 40H51.307L52.057 38H52.0234C52.0079 38.0004 51.9925 38.0004 51.977 38H46V40ZM26 38V40H20.693L19.943 38H19.9767C19.9921 38.0004 20.0076 38.0004 20.0231 38H26ZM43.3258 48H52.7192L51.4692 43H44.7543L43.3258 48ZM27.2457 43L28.6743 48H19.2808L20.5308 43H27.2457Z" fill="#3AACF2"/>
</svg>
