<svg width="72" height="72" viewBox="0 0 72 72" fill="none" xmlns="http://www.w3.org/2000/svg">
<rect width="72" height="72" rx="16" fill="#ECF7FE"/>
<path fill-rule="evenodd" clip-rule="evenodd" d="M18 21C18 19.3432 19.3432 18 21 18H51C52.6569 18 54 19.3432 54 21V51C54 52.6569 52.6569 54 51 54H21C19.3432 54 18 52.6569 18 51V21ZM23.4337 22C23.1726 22 22.9139 22.0107 22.6579 22.0316C22.2861 22.062 22 22.3699 22 22.7397V50.2895C22 50.6819 22.3209 51 22.7169 51H24.8674C25.2633 51 25.5843 50.6819 25.5843 50.2895V45.1039L28.521 46.3514C28.8965 46.5109 29.353 46.6789 29.8296 46.7412C30.3151 46.8045 30.8659 46.7633 31.3783 46.4532C32.201 45.9551 32.7528 45.0549 32.7528 44.0263V41.8947C32.7528 41.5023 32.4318 41.1842 32.0359 41.1842L29.8296 40.4737C29.8296 39.7522 30.4191 39.7568 31.1294 39.7622C31.1917 39.7627 31.2552 39.7632 31.3191 39.7632H32.0359C32.4318 39.7632 32.7528 39.445 32.7528 39.0526V37.6316H33.5639C34.709 37.6316 35.392 36.3666 34.7568 35.4223L32.7528 32.4428V31.2368C32.7528 26.1355 28.5805 22 23.4337 22ZM30.6022 33.0132C30.6022 33.6018 30.1208 34.0789 29.5269 34.0789C28.9331 34.0789 28.4517 33.6018 28.4517 33.0132C28.4517 32.4245 28.9331 31.9474 29.5269 31.9474C30.1208 31.9474 30.6022 32.4245 30.6022 33.0132ZM38.6842 40C38.6842 40.893 38.2051 41.6693 37.4955 42.084L38.5045 43.8108C39.8085 43.0488 40.6842 41.6259 40.6842 40C40.6842 38.3741 39.8085 36.9512 38.5045 36.1892L37.4955 37.916C38.2051 38.3307 38.6842 39.107 38.6842 40ZM42.8947 40C42.8947 37.9328 41.9952 36.214 40.7823 35.3365L41.9546 33.7161C43.7621 35.0238 44.8947 37.3893 44.8947 40C44.8947 42.6107 43.7621 44.9762 41.9546 46.2839L40.7823 44.6635C41.9952 43.786 42.8947 42.0672 42.8947 40ZM47.1053 40C47.1053 43.1814 45.8411 45.848 44.1155 47.2165L45.3582 48.7835C47.6598 46.9583 49.1053 43.6555 49.1053 40C49.1053 36.3445 47.6598 33.0417 45.3582 31.2165L44.1155 32.7835C45.8411 34.152 47.1053 36.8186 47.1053 40Z" fill="#3AACF2"/>
</svg>
