<svg width="22" height="21" viewBox="0 0 22 21" fill="none" xmlns="http://www.w3.org/2000/svg">
<path d="M18.2188 0H3.78125C1.96907 0 0.5 1.46907 0.5 3.28125V17.7188C0.5 19.5309 1.96907 21 3.78125 21H18.2188C20.0309 21 21.5 19.5309 21.5 17.7188V3.28125C21.5 1.46907 20.0309 0 18.2188 0Z" fill="#0088CC"/>
<path d="M5.81557 10.3086C8.63414 9.08056 10.5136 8.27099 11.454 7.87984C14.1391 6.76304 14.697 6.56904 15.0607 6.56256C15.1406 6.56122 15.3195 6.58104 15.4353 6.67504C15.5331 6.75441 15.56 6.86162 15.5729 6.93687C15.5858 7.01213 15.6018 7.18355 15.5891 7.31749C15.4436 8.84631 14.814 12.5564 14.4937 14.2687C14.3582 14.9932 14.0913 15.2361 13.8329 15.2599C13.2715 15.3116 12.8451 14.8888 12.3013 14.5324C11.4503 13.9746 10.9696 13.6273 10.1436 13.083C9.18903 12.4539 9.80785 12.1082 10.3519 11.5432C10.4942 11.3953 12.9681 9.14515 13.016 8.94102C13.0219 8.91549 13.0275 8.82033 12.971 8.77008C12.9144 8.71984 12.831 8.73702 12.7708 8.75068C12.6854 8.77006 11.326 9.66858 8.69255 11.4462C8.30669 11.7112 7.95719 11.8403 7.64404 11.8335C7.29883 11.8261 6.63477 11.6384 6.14111 11.4779C5.53562 11.2811 5.05439 11.177 5.09629 10.8427C5.11812 10.6686 5.35788 10.4906 5.81557 10.3086Z" fill="white"/>
</svg>
