<svg width="40" height="28" viewBox="0 0 40 28" fill="none" xmlns="http://www.w3.org/2000/svg">
<path fill-rule="evenodd" clip-rule="evenodd" d="M10.6371 3.24211C5.35463 5.04965 0.944389 6.58787 0.836381 6.66038C0.511237 6.8787 0.608364 7.55991 1.00007 7.80952C1.19801 7.93579 2.27425 8.34539 3.39161 8.71997L5.42295 9.40085L4.87908 10.4087C4.32287 11.4393 3.84684 13.1178 3.84268 14.0636C3.84092 14.4408 3.67371 14.7803 3.2604 15.2461C2.50402 16.0987 2.35857 17.0742 2.86389 17.9066C3.05238 18.2173 3.3228 18.5169 3.46473 18.5725C3.80172 18.704 3.68075 19.6705 3.11095 21.399C2.61203 22.912 1.85101 24.2265 0.788857 25.4098C0.355066 25.8932 0 26.3648 0 26.4576C0 26.667 1.48475 27.5434 2.39105 27.8691C3.25608 28.1798 3.8318 27.9582 4.69842 26.9803C5.97323 25.5418 6.29502 23.8012 5.93435 20.2942C5.75114 18.5125 5.75562 18.4487 6.0862 18.0904C6.75585 17.3644 6.58528 15.5953 5.81658 15.2948C5.50776 15.1743 5.63257 13.9088 6.10764 12.343C6.75089 10.2222 7.74648 9.57307 14.401 6.93556C19.2644 5.00794 20.2023 4.71011 20.6919 4.9374C21.6313 5.37323 21.2593 6.39089 19.9968 6.8383C18.4652 7.38134 10.1655 10.703 10.0454 10.8211C9.98185 10.8835 12.2687 11.727 15.127 12.6958L20.3242 14.4569L29.8036 11.2478C35.0171 9.48297 39.4449 7.93563 39.6429 7.80952C40.037 7.55828 40.1263 6.91227 39.8029 6.6519C39.6562 6.53378 21.455 0.293739 20.4015 0.000302674C20.3135 -0.0241368 15.9196 1.43457 10.6371 3.24211ZM26.6419 14.524C23.3857 15.6357 20.5441 16.546 20.3272 16.5469C20.1104 16.5479 17.3598 15.6689 14.2148 14.5936C11.0698 13.5182 8.39405 12.6384 8.2686 12.6384C8.02618 12.6384 7.84057 13.3086 7.84057 14.1838C7.84057 14.5613 7.9977 14.8807 8.39437 15.3088C9.47925 16.4801 9.5631 18.1692 8.60383 19.5242C8.42877 19.7713 8.46702 19.8663 8.88065 20.2104C10.2737 21.3695 12.8531 22.3542 15.7611 22.8377C18.1613 23.2367 22.4816 23.2367 24.8818 22.8377C29.0136 22.1509 32.0233 20.6401 32.7403 18.8928C33.0438 18.1529 33.0635 12.4685 32.7624 12.4892C32.6525 12.4968 29.8982 13.4125 26.6419 14.524Z" fill="#002340"/>
</svg>
