<svg width="72" height="72" viewBox="0 0 72 72" fill="none" xmlns="http://www.w3.org/2000/svg">
<rect width="72" height="72" rx="16" fill="#ECF7FE"/>
<path fill-rule="evenodd" clip-rule="evenodd" d="M17.5 21C17.5 19.3432 18.8432 18 20.5 18H50.5C52.1569 18 53.5 19.3432 53.5 21V51C53.5 52.6569 52.1569 54 50.5 54H20.5C18.8432 54 17.5 52.6569 17.5 51V21ZM29.5577 48.5L31.1211 49.5071C31.7866 49.9358 32.6626 49.458 32.6626 48.6664L32.6627 44.7586C32.6627 44.4514 32.5215 44.1613 32.2798 43.9717L25.5934 38.7277C25.1515 38.3811 24.5109 38.4663 24.1749 38.9163L22.0988 41.6977C21.7682 42.1407 21.8596 42.7678 22.303 43.0979L29.5577 48.5ZM40.0431 49.5071L41.6065 48.5L48.8612 43.0979C49.3045 42.7678 49.396 42.1407 49.0653 41.6977L46.9892 38.9163C46.6533 38.4663 46.0127 38.3811 45.5707 38.7277L38.8844 43.9717C38.6427 44.1613 38.5015 44.4514 38.5015 44.7586V48.6664C38.5015 49.458 39.3776 49.9358 40.0431 49.5071ZM43.9291 35.2747C43.8405 35.916 43.7526 36.5523 43.7722 37.2711L44.0015 37.9999L38.9473 41.9999L38.2181 41.142C37.7443 40.4093 37.5 39.9999 37 38.9999C36.5 37.9999 36.5 36.9999 36.5 36.9999L36.5001 35.2744C36.5001 34.3133 36.5001 33.3929 36.5 31.066C36.4999 30 37.6518 30.3417 38.246 30.8478C38.8402 31.354 38.9032 31.795 38.9032 31.795L39.4889 34.8892C39.4889 34.8892 39.4838 32.0947 39.3452 31.066C39.2926 30.6758 38.9802 30.1328 38.6186 29.5041C38.4973 29.2932 38.3705 29.0727 38.246 28.8451C38.08 28.5413 37.9328 28.2827 37.7984 28.0465C37.49 27.5044 37.2488 27.0803 37.0001 26.5C35.6403 23.3271 37.4229 23.6797 38.2203 24.1438C39.0178 24.6078 42.9 28.6412 43.408 29.4107C43.8057 30.0134 43.8788 30.8229 43.9612 31.7362C43.984 31.9891 44.0075 32.25 44.0389 32.5167C44.1636 33.5777 44.0458 34.4305 43.9291 35.2747ZM27.392 37.2711C27.4116 36.5523 27.3237 35.916 27.2351 35.2747C27.1184 34.4305 27.0006 33.5777 27.1253 32.5167C27.1567 32.25 27.1802 31.9891 27.203 31.7362C27.2854 30.8229 27.3584 30.0134 27.7562 29.4107C28.2642 28.6412 32.1464 24.6078 32.9439 24.1438C33.7413 23.6797 35.5239 23.3271 34.1641 26.5C33.9154 27.0803 33.6741 27.5044 33.3658 28.0465C33.2314 28.2827 33.0842 28.5413 32.9182 28.8451C32.7937 29.0727 32.6669 29.2932 32.5456 29.5041C32.184 30.1328 31.8716 30.6758 31.819 31.066C31.6804 32.0947 31.6753 34.8892 31.6753 34.8892L32.261 31.795C32.261 31.795 32.324 31.354 32.9182 30.8478C33.5123 30.3417 34.6642 30 34.6642 31.066C34.664 33.3944 34.6641 34.3144 34.6641 35.2762C34.6642 35.773 34.6642 36.2809 34.6642 36.9999C34.6642 36.9999 34.6642 37.9999 34.1642 38.9999C33.6642 39.9999 33.4198 40.4093 32.946 41.142L32.2168 41.9999L27.1627 37.9999L27.392 37.2711Z" fill="#3AACF2"/>
</svg>
