<svg width="31" height="38" viewBox="0 0 31 38"  xmlns="http://www.w3.org/2000/svg">
<path d="M15.5016 1.12924C14.6962 1.12924 14.0306 1.72772 13.9253 2.5042L13.9108 2.72006L13.9108 34.5365C13.9108 35.4151 14.623 36.1273 15.5016 36.1273C16.307 36.1273 16.9725 35.5288 17.0779 34.7523L17.0924 34.5365L17.0924 2.72006C17.0924 1.84148 16.3802 1.12924 15.5016 1.12924Z" fill="#002340" stroke="#002340" stroke-width="2"/>
<path d="M3.85149 20.5834C3.23158 19.9608 2.22433 19.9586 1.60174 20.5786C1.03575 21.1421 0.982501 22.0258 1.44325 22.6496L1.59689 22.8283L14.3744 35.6609C14.9396 36.2286 15.8265 36.2803 16.4502 35.8158L16.6289 35.661L29.4085 22.8284C30.0284 22.2059 30.0263 21.1986 29.4038 20.5787C28.8379 20.0151 27.954 19.9655 27.3321 20.4289L27.154 20.5833L15.501 32.2833L3.85149 20.5834Z" fill="#002340" stroke="#002340" stroke-width="2"/>
</svg>
