<svg width="35" height="36" viewBox="0 0 35 36" fill="none" xmlns="http://www.w3.org/2000/svg">
<path fill-rule="evenodd" clip-rule="evenodd" d="M7.29297 5.604V27.479C7.29297 28.6872 8.27231 29.6665 9.48047 29.6665H18.9596V27.0888C18.0878 26.5845 17.5013 25.6419 17.5013 24.5623C17.5013 22.9515 18.8072 21.6457 20.418 21.6457C22.0288 21.6457 23.3346 22.9515 23.3346 24.5623C23.3346 25.6419 22.7481 26.5845 21.8763 27.0888V29.6665H25.5221C26.7303 29.6665 27.7096 28.6872 27.7096 27.479V5.604C27.7096 4.39588 26.7303 3.4165 25.5221 3.4165H9.48047C8.27231 3.4165 7.29297 4.39588 7.29297 5.604ZM20.418 26.0207C21.2234 26.0207 21.8763 25.3678 21.8763 24.5623C21.8763 23.7569 21.2234 23.104 20.418 23.104C19.6125 23.104 18.9596 23.7569 18.9596 24.5623C18.9596 25.3678 19.6125 26.0207 20.418 26.0207ZM13.1263 8.52067C13.1263 8.11795 13.4527 7.7915 13.8555 7.7915H21.1471C21.5499 7.7915 21.8763 8.11795 21.8763 8.52067C21.8763 8.92339 21.5499 9.24984 21.1471 9.24984H13.8555C13.4527 9.24984 13.1263 8.92339 13.1263 8.52067ZM10.9388 12.1665C10.5361 12.1665 10.2096 12.493 10.2096 12.8957C10.2096 13.2984 10.5361 13.6248 10.9388 13.6248H24.0638C24.4665 13.6248 24.793 13.2984 24.793 12.8957C24.793 12.493 24.4665 12.1665 24.0638 12.1665H10.9388ZM10.2096 15.8123C10.2096 15.4096 10.5361 15.0832 10.9388 15.0832H24.0638C24.4665 15.0832 24.793 15.4096 24.793 15.8123C24.793 16.2151 24.4665 16.5415 24.0638 16.5415H10.9388C10.5361 16.5415 10.2096 16.2151 10.2096 15.8123ZM10.9388 17.9998C10.5361 17.9998 10.2096 18.3263 10.2096 18.729C10.2096 19.1317 10.5361 19.4582 10.9388 19.4582H24.0638C24.4665 19.4582 24.793 19.1317 24.793 18.729C24.793 18.3263 24.4665 17.9998 24.0638 17.9998H10.9388Z" fill="#002340"/>
<path d="M18.957 32.5832V29.6665H21.8737V32.5832L20.4154 31.4894L18.957 32.5832Z" fill="#002340"/>
</svg>
