<svg width="77" height="77" viewBox="0 0 77 77" fill="none" xmlns="http://www.w3.org/2000/svg">
<rect x="0.257629" y="0.681396" width="75.902" height="75.8844" rx="21.6838" fill="#3AACF2" fill-opacity="0.1"/>
<path fill-rule="evenodd" clip-rule="evenodd" d="M43.2559 37.6036C44.3035 37.6036 45.3268 37.3184 46.192 36.7853C47.0705 37.3174 48.1073 37.5963 49.1652 37.5852L52.5258 36.4816C53.4727 35.777 54.1228 34.8003 54.3673 33.7149C54.6117 32.6295 54.4356 31.5013 53.8685 30.519C53.3014 29.5368 52.3777 28.76 51.252 28.319C50.9949 27.2681 50.3475 26.3282 49.417 25.6552L46.1366 24.6191H45.7673C45.0377 23.6583 43.9423 22.9729 42.6893 22.6933L35.6564 22.3364C34.4873 22.4241 33.3849 22.8642 32.5267 23.5858C32.1211 23.4995 31.706 23.4548 31.2894 23.4525C30.2805 23.4544 29.2938 23.7197 28.4484 24.2166C27.603 24.7134 26.935 25.4205 26.525 26.2524L23.8528 27.9608C23.1878 28.7739 22.8299 29.7583 22.8316 30.7689C22.825 31.1914 22.8873 31.6126 23.0163 32.0188C22.3152 32.8399 21.9382 33.8488 21.9452 34.8854C21.9436 36.0876 22.4524 37.2446 23.3672 38.1186C23.441 38.9792 23.7742 39.8054 24.3308 40.5074C24.8874 41.2095 25.6462 41.7609 26.525 42.1018C27.5376 42.6747 28.395 43.4452 29.0341 44.3566C29.6733 45.268 30.0779 46.2971 30.2184 47.3683H32.6747V40.3732L30.2876 38.2518L28.6725 39.8666C28.3195 40.2194 27.7475 40.2194 27.3945 39.8666C27.0417 39.5139 27.0417 38.9418 27.3945 38.5891L29.2776 36.7064L28.7037 33.5512L26.1508 32.2749C25.7044 32.0518 25.5235 31.5091 25.7467 31.0629C25.9699 30.6167 26.5126 30.4357 26.959 30.6589L29.4591 31.9086L32.587 29.9186L31.6233 27.3493C31.4481 26.8822 31.6848 26.3615 32.152 26.1862C32.6193 26.011 33.1402 26.2477 33.3154 26.7149L34.3434 29.4554H35.6074L36.194 28.2824L35.3353 26.2793C35.1388 25.8207 35.3512 25.2896 35.8099 25.0931C36.2686 24.8965 36.7999 25.109 36.9964 25.5675L37.7426 27.3082L40.7242 27.8502C40.7409 27.8345 40.7583 27.8194 40.7765 27.805L42.6248 26.3267C43.0145 26.015 43.5832 26.0782 43.8949 26.4678C44.2066 26.8573 44.1434 27.4258 43.7538 27.7375L42.4239 28.8011L43.9864 30.8095L44.599 29.5847C44.7521 29.2786 45.065 29.0853 45.4072 29.0853H47.6251C48.1242 29.0853 48.5287 29.4897 48.5287 29.9886C48.5287 30.4876 48.1242 30.892 47.6251 30.892H45.9657L45.5868 31.6496L47.4515 32.0638C47.5236 32.0799 47.5934 32.1047 47.6596 32.1377L49.1381 32.8769C49.5845 33.1 49.7654 33.6426 49.5423 34.0888C49.3191 34.5351 48.7763 34.716 48.3299 34.4928L46.9509 33.8035L43.7325 33.0884C43.5273 33.0428 43.3443 32.9271 43.2153 32.7612L40.8397 29.7075L37.891 29.1715C37.8352 29.2235 37.7721 29.2689 37.7025 29.3062L37.0694 30.5721V31.3026H38.3838C38.5241 31.3026 38.6625 31.3353 38.7879 31.398L41.7452 32.8763C42.1914 33.0995 42.3724 33.642 42.1492 34.0883C41.9261 34.5346 41.3833 34.7154 40.9369 34.4923L38.1704 33.1094H37.0694V34.7936C37.0694 35.2925 36.6649 35.697 36.1658 35.697C35.6668 35.697 35.2622 35.2925 35.2622 34.7936V31.2622H33.8414L30.5098 33.3818L31.0846 36.5428L34.1786 39.2923C34.3715 39.4637 34.4819 39.7094 34.4819 39.9675V47.3683H37.1178V42.3684C37.1166 41.4807 37.391 40.6104 37.91 39.8562C38.429 39.1022 39.1717 38.4944 40.0541 38.1019C40.5502 37.9306 40.6723 37.7 40.8219 37.4174C40.9215 37.229 41.0335 37.0176 41.2764 36.7853C41.4875 36.9153 41.6509 37.0306 41.7928 37.1306C42.2325 37.4405 42.4637 37.6036 43.2559 37.6036Z" fill="#3AACF2"/>
<path fill-rule="evenodd" clip-rule="evenodd" d="M37.3068 51.2711H30.0781V49.4644H37.3068V51.2711Z" fill="#3AACF2"/>
<path fill-rule="evenodd" clip-rule="evenodd" d="M37.3068 54.8849H30.0781V53.0781H37.3068V54.8849Z" fill="#3AACF2"/>
</svg>
