<svg width="22" height="21" viewBox="0 0 22 21" fill="none" xmlns="http://www.w3.org/2000/svg">
<path d="M0.5 3.28125C0.5 1.46907 1.96907 0 3.78125 0H18.2188C20.0309 0 21.5 1.46907 21.5 3.28125V17.7188C21.5 19.5309 20.0309 21 18.2188 21H3.78125C1.96907 21 0.5 19.5309 0.5 17.7188V3.28125Z" fill="#F05638"/>
<path fill-rule="evenodd" clip-rule="evenodd" d="M14.2001 7.52735C14.2001 9.27903 12.7721 10.707 11.0203 10.707C9.24961 10.707 7.8216 9.27903 7.8216 7.52735C7.8216 5.77567 9.24961 4.34766 11.0203 4.34766C12.7721 4.34766 14.2001 5.77567 14.2001 7.52735ZM12.3341 7.52735C12.3341 6.80383 11.7438 6.21358 11.0203 6.21358C10.2778 6.21358 9.6875 6.80383 9.70658 7.52735C9.70658 8.25088 10.2968 8.84109 11.0203 8.84109C11.7438 8.84109 12.3341 8.25088 12.3341 7.52735Z" fill="white"/>
<path d="M14.1429 12.554C13.5717 12.9157 12.9434 13.1632 12.2961 13.3156L14.1049 15.0672C14.4666 15.4291 14.4666 16.0192 14.1049 16.3811C13.7431 16.7428 13.1529 16.7428 12.7911 16.3811L11.0394 14.6293L9.28772 16.3811C9.09731 16.5524 8.86883 16.6476 8.62131 16.6476C8.37379 16.6476 8.14531 16.5715 7.95491 16.3811C7.59314 16.0192 7.59314 15.4291 7.95491 15.0672L9.72565 13.2965C9.07826 13.1442 8.44995 12.8967 7.87874 12.5349C7.44082 12.2684 7.30754 11.6972 7.55506 11.2592C7.84067 10.8213 8.41187 10.7071 8.84979 10.9736C10.1445 11.7924 11.839 11.7924 13.1338 10.9736C13.5717 10.688 14.162 10.8213 14.4285 11.2592C14.7141 11.6972 14.5809 12.2874 14.1429 12.554Z" fill="white"/>
</svg>
