<svg width="72" height="72" viewBox="0 0 72 72" fill="none" xmlns="http://www.w3.org/2000/svg">
<rect width="72" height="72" rx="16" fill="#ECF7FE"/>
<path fill-rule="evenodd" clip-rule="evenodd" d="M20 52V19H18V53C18 53.5523 18.4477 54 19 54H53V52H20Z" fill="#3AACF2"/>
<path fill-rule="evenodd" clip-rule="evenodd" d="M23 37C23 36.4477 23.4477 36 24 36H30C30.5523 36 31 36.4477 31 37V53C31 53.5523 30.5523 54 30 54H24C23.4477 54 23 53.5523 23 53V37ZM25 38V52H29V38H25Z" fill="#3AACF2"/>
<path d="M24 45H30V53H24V45Z" fill="#3AACF2"/>
<path fill-rule="evenodd" clip-rule="evenodd" d="M23 45C23 44.4477 23.4477 44 24 44H30C30.5523 44 31 44.4477 31 45V53C31 53.5523 30.5523 54 30 54H24C23.4477 54 23 53.5523 23 53V45ZM25 46V52H29V46H25Z" fill="#3AACF2"/>
<path fill-rule="evenodd" clip-rule="evenodd" d="M33 33C33 32.4477 33.4477 32 34 32H40C40.5523 32 41 32.4477 41 33V53C41 53.5523 40.5523 54 40 54H34C33.4477 54 33 53.5523 33 53V33ZM35 34V52H39V34H35Z" fill="#3AACF2"/>
<path d="M34 41H40V53H34V41Z" fill="#3AACF2"/>
<path fill-rule="evenodd" clip-rule="evenodd" d="M33 41C33 40.4477 33.4477 40 34 40H40C40.5523 40 41 40.4477 41 41V53C41 53.5523 40.5523 54 40 54H34C33.4477 54 33 53.5523 33 53V41ZM35 42V52H39V42H35Z" fill="#3AACF2"/>
<path fill-rule="evenodd" clip-rule="evenodd" d="M43 25C43 24.4477 43.4477 24 44 24H50C50.5523 24 51 24.4477 51 25V53C51 53.5523 50.5523 54 50 54H44C43.4477 54 43 53.5523 43 53V25ZM45 26V52H49V26H45Z" fill="#3AACF2"/>
<path d="M44 37H50V53H44V37Z" fill="#3AACF2"/>
<path fill-rule="evenodd" clip-rule="evenodd" d="M43 37C43 36.4477 43.4477 36 44 36H50C50.5523 36 51 36.4477 51 37V53C51 53.5523 50.5523 54 50 54H44C43.4477 54 43 53.5523 43 53V37ZM45 38V52H49V38H45Z" fill="#3AACF2"/>
</svg>
