<svg width="22" height="21" viewBox="0 0 22 21" fill="none" xmlns="http://www.w3.org/2000/svg">
<path d="M18.2188 0H3.78125C1.96907 0 0.5 1.46907 0.5 3.28125V17.7188C0.5 19.5309 1.96907 21 3.78125 21H18.2188C20.0309 21 21.5 19.5309 21.5 17.7188V3.28125C21.5 1.46907 20.0309 0 18.2188 0Z" fill="#25D366"/>
<path fill-rule="evenodd" clip-rule="evenodd" d="M14.675 6.75938C13.6906 5.775 12.3781 5.25 11 5.25C8.1125 5.25 5.75 7.6125 5.75 10.5C5.75 11.4187 6.0125 12.3375 6.47188 13.125L5.75 15.75L8.50626 15.0281C9.29376 15.4219 10.1469 15.6844 11 15.6844C13.8875 15.6844 16.25 13.3219 16.25 10.4344C16.25 9.05625 15.6594 7.74375 14.675 6.75938ZM11 14.8313C10.2125 14.8313 9.425 14.6344 8.76875 14.2406L8.6375 14.175L6.99687 14.6344L7.45625 13.0594L7.325 12.8625C6.86562 12.1406 6.66875 11.3531 6.66875 10.5656C6.66875 8.20313 8.6375 6.23438 11 6.23438C12.1813 6.23438 13.2313 6.69375 14.0844 7.48125C14.9375 8.33437 15.3313 9.38438 15.3313 10.5656C15.3313 12.8625 13.4281 14.8313 11 14.8313ZM13.3625 11.55C13.2313 11.4844 12.575 11.1562 12.4438 11.1562C12.3125 11.0906 12.2469 11.0906 12.1812 11.2219C12.1156 11.3531 11.8531 11.6156 11.7875 11.7469C11.7219 11.8125 11.6562 11.8125 11.525 11.8125C11.3937 11.7469 11 11.6156 10.475 11.1562C10.0813 10.8281 9.81875 10.3688 9.75313 10.2375C9.6875 10.1063 9.75313 10.0406 9.81876 9.975C9.88438 9.90937 9.95 9.84375 10.0156 9.77812C10.0813 9.7125 10.0813 9.64688 10.1469 9.58125C10.2125 9.51563 10.1469 9.45 10.1469 9.38438C10.1469 9.31875 9.88438 8.6625 9.75313 8.4C9.6875 8.20312 9.55626 8.20312 9.49063 8.20312C9.42501 8.20312 9.35937 8.20312 9.22812 8.20312C9.16249 8.20312 9.03124 8.20312 8.89999 8.33437C8.76874 8.46562 8.44063 8.79375 8.44063 9.45C8.44063 10.1062 8.9 10.6969 8.96562 10.8281C9.03125 10.8938 9.88437 12.2719 11.1969 12.7969C12.3125 13.2563 12.5094 13.125 12.7719 13.125C13.0344 13.125 13.5594 12.7969 13.625 12.5344C13.7563 12.2063 13.7563 11.9438 13.6906 11.9438C13.625 11.6156 13.4938 11.6156 13.3625 11.55Z" fill="white"/>
</svg>
