<svg width="26" height="27" viewBox="0 0 26 27" fill="none" xmlns="http://www.w3.org/2000/svg">
<path opacity="0.4" d="M22.4995 20.8056V19.0421C22.4995 18.1659 21.9661 17.378 21.1525 17.0526L18.9732 16.1808C17.9384 15.7669 16.7592 16.2153 16.2608 17.2121L16.0711 17.5914C16.0711 17.5914 13.3926 17.0557 11.2498 14.9128C9.10697 12.77 8.57126 10.0915 8.57126 10.0915L8.95056 9.90187C9.94736 9.40348 10.3957 8.22421 9.98182 7.18947L9.11006 5.01008C8.78465 4.19654 7.99672 3.66309 7.12051 3.66309H5.35705C4.1736 3.66309 3.21423 4.62246 3.21423 5.8059C3.21423 15.2734 10.8892 22.9484 20.3567 22.9484C21.5402 22.9484 22.4995 21.989 22.4995 20.8056Z" fill="#F05638"/>
<path fill-rule="evenodd" clip-rule="evenodd" d="M13.1247 7.94855C13.1247 7.50476 13.4845 7.145 13.9283 7.145C14.5966 7.145 15.2584 7.27663 15.8758 7.53239C16.4933 7.78814 17.0543 8.16301 17.5269 8.63559C17.9994 9.10816 18.3743 9.66919 18.6301 10.2866C18.8858 10.9041 19.0175 11.5659 19.0175 12.2342C19.0175 12.678 18.6577 13.0377 18.2139 13.0377C17.7701 13.0377 17.4103 12.678 17.4103 12.2342C17.4103 11.7769 17.3203 11.3241 17.1453 10.9016C16.9703 10.4792 16.7138 10.0953 16.3905 9.77198C16.0671 9.44864 15.6833 9.19216 15.2608 9.01716C14.8383 8.84217 14.3856 8.75211 13.9283 8.75211C13.4845 8.75211 13.1247 8.39234 13.1247 7.94855Z" fill="#F05638"/>
<path fill-rule="evenodd" clip-rule="evenodd" d="M13.1247 3.66293C13.1247 3.21914 13.4845 2.85938 13.9283 2.85938C15.1594 2.85937 16.3785 3.10186 17.5159 3.57299C18.6533 4.04412 19.6867 4.73466 20.5573 5.60519C21.4278 6.47572 22.1183 7.50919 22.5895 8.6466C23.0606 9.784 23.3031 11.0031 23.3031 12.2342C23.3031 12.678 22.9433 13.0377 22.4995 13.0377C22.0557 13.0377 21.696 12.678 21.696 12.2342C21.696 11.2141 21.4951 10.204 21.1047 9.26161C20.7143 8.31919 20.1422 7.46289 19.4209 6.74159C18.6996 6.02029 17.8433 5.44813 16.9008 5.05776C15.9584 4.6674 14.9483 4.46648 13.9283 4.46648C13.4845 4.46648 13.1247 4.10672 13.1247 3.66293Z" fill="#F05638"/>
</svg>
