<svg width="77" height="76" viewBox="0 0 77 76" fill="none" xmlns="http://www.w3.org/2000/svg">
<rect x="0.683594" y="0.088623" width="75.902" height="75.8844" rx="21.6838" fill="#3AACF2" fill-opacity="0.1"/>
<path d="M38.7109 26.0417C38.7109 22.705 36.006 20 32.6692 20H26.7526C23.4159 20 20.7109 22.705 20.7109 26.0417C20.7109 29.3784 23.4159 32.0833 26.7526 32.0833H27.9109V35C27.9109 35 38.7109 33.5417 38.7109 26.0417Z" fill="#3AACF2"/>
<path d="M33.2109 42C33.2109 44.21 31.4209 46 29.2109 46C27.0009 46 25.2109 44.21 25.2109 42C25.2109 39.79 27.0009 38 29.2109 38C31.4209 38 33.2109 39.79 33.2109 42Z" fill="#3AACF2"/>
<path d="M29.2109 48C26.374 48 20.7109 49.4293 20.7109 52.2667V56H37.7109V52.2667C37.7109 49.4293 32.0478 48 29.2109 48Z" fill="#3AACF2"/>
<path d="M48.2109 46C50.4209 46 52.2109 44.21 52.2109 42C52.2109 39.79 50.4209 38 48.2109 38C46.0009 38 44.2109 39.79 44.2109 42C44.2109 44.21 46.0009 46 48.2109 46Z" fill="#3AACF2"/>
<path d="M48.2109 48C45.374 48 39.7109 49.4293 39.7109 52.2667V56H56.7109V52.2667C56.7109 49.4293 51.0478 48 48.2109 48Z" fill="#3AACF2"/>
<path d="M46.7526 21C43.4158 21 40.7109 23.705 40.7109 27.0417C40.7109 34.5417 50.3109 36 50.3109 36V33.0833H50.6692C54.006 33.0833 56.7109 30.3784 56.7109 27.0417C56.7109 23.705 54.006 21 50.6692 21H46.7526Z" fill="#3AACF2"/>
</svg>
