<svg width="77" height="77" viewBox="0 0 77 77" fill="none" xmlns="http://www.w3.org/2000/svg">
<rect x="0.683594" y="0.681396" width="75.902" height="75.8844" rx="21.6838" fill="#3AACF2" fill-opacity="0.1"/>
<g clip-path="url(#clip0_1_175)">
<path fill-rule="evenodd" clip-rule="evenodd" d="M22.0469 55.0576V22.0576H20.0469V56.0576C20.0469 56.6099 20.4946 57.0576 21.0469 57.0576H56.0469V55.0576H22.0469Z" fill="#3AACF2"/>
<path fill-rule="evenodd" clip-rule="evenodd" d="M29.3315 41.1772L21.8315 50.6772L20.2617 49.438L27.7617 39.938L29.3315 41.1772Z" fill="#3AACF2"/>
<path fill-rule="evenodd" clip-rule="evenodd" d="M41.7307 44.0063L29.7307 40.0063L30.3631 38.1089L42.3631 42.1089L41.7307 44.0063Z" fill="#3AACF2"/>
<path fill-rule="evenodd" clip-rule="evenodd" d="M52.8176 31.6979L42.8176 43.6979L41.2812 42.4175L51.2812 30.4175L52.8176 31.6979Z" fill="#3AACF2"/>
<path d="M33.0469 39.0576C33.0469 40.7145 31.7038 42.0576 30.0469 42.0576C28.39 42.0576 27.0469 40.7145 27.0469 39.0576C27.0469 37.4007 28.39 36.0576 30.0469 36.0576C31.7038 36.0576 33.0469 37.4007 33.0469 39.0576Z" fill="#3AACF2"/>
<path fill-rule="evenodd" clip-rule="evenodd" d="M30.0469 40.0576C30.5992 40.0576 31.0469 39.6099 31.0469 39.0576C31.0469 38.5053 30.5992 38.0576 30.0469 38.0576C29.4946 38.0576 29.0469 38.5053 29.0469 39.0576C29.0469 39.6099 29.4946 40.0576 30.0469 40.0576ZM30.0469 42.0576C31.7038 42.0576 33.0469 40.7145 33.0469 39.0576C33.0469 37.4007 31.7038 36.0576 30.0469 36.0576C28.39 36.0576 27.0469 37.4007 27.0469 39.0576C27.0469 40.7145 28.39 42.0576 30.0469 42.0576Z" fill="#3AACF2"/>
<path d="M45.0469 43.0576C45.0469 44.7145 43.7038 46.0576 42.0469 46.0576C40.39 46.0576 39.0469 44.7145 39.0469 43.0576C39.0469 41.4007 40.39 40.0576 42.0469 40.0576C43.7038 40.0576 45.0469 41.4007 45.0469 43.0576Z" fill="#3AACF2"/>
<path fill-rule="evenodd" clip-rule="evenodd" d="M42.0469 44.0576C42.5992 44.0576 43.0469 43.6099 43.0469 43.0576C43.0469 42.5053 42.5992 42.0576 42.0469 42.0576C41.4946 42.0576 41.0469 42.5053 41.0469 43.0576C41.0469 43.6099 41.4946 44.0576 42.0469 44.0576ZM42.0469 46.0576C43.7038 46.0576 45.0469 44.7145 45.0469 43.0576C45.0469 41.4007 43.7038 40.0576 42.0469 40.0576C40.39 40.0576 39.0469 41.4007 39.0469 43.0576C39.0469 44.7145 40.39 46.0576 42.0469 46.0576Z" fill="#3AACF2"/>
<path d="M55.0469 31.0576C55.0469 32.7145 53.7038 34.0576 52.0469 34.0576C50.39 34.0576 49.0469 32.7145 49.0469 31.0576C49.0469 29.4007 50.39 28.0576 52.0469 28.0576C53.7038 28.0576 55.0469 29.4007 55.0469 31.0576Z" fill="#3AACF2"/>
<path fill-rule="evenodd" clip-rule="evenodd" d="M52.0469 32.0576C52.5992 32.0576 53.0469 31.6099 53.0469 31.0576C53.0469 30.5053 52.5992 30.0576 52.0469 30.0576C51.4946 30.0576 51.0469 30.5053 51.0469 31.0576C51.0469 31.6099 51.4946 32.0576 52.0469 32.0576ZM52.0469 34.0576C53.7038 34.0576 55.0469 32.7145 55.0469 31.0576C55.0469 29.4007 53.7038 28.0576 52.0469 28.0576C50.39 28.0576 49.0469 29.4007 49.0469 31.0576C49.0469 32.7145 50.39 34.0576 52.0469 34.0576Z" fill="#3AACF2"/>
</g>
<defs>
<clipPath id="clip0_1_175">
<rect width="43.3726" height="43.3625" fill="white" transform="translate(17 17)"/>
</clipPath>
</defs>
</svg>
