<svg width="77" height="77" viewBox="0 0 77 77" fill="none" xmlns="http://www.w3.org/2000/svg">
<rect x="0.970612" y="0.681396" width="75.902" height="75.8844" rx="21.6838" fill="#3AACF2" fill-opacity="0.1"/>
<path fill-rule="evenodd" clip-rule="evenodd" d="M54.0019 28C52.345 28 51.0019 29.3431 51.0019 31V33H57.0019V31C57.0019 29.3431 55.6588 28 54.0019 28ZM57.0019 35H51.0019V51.5L54.0019 56L57.0019 51.5V35Z" fill="#3AACF2"/>
<path fill-rule="evenodd" clip-rule="evenodd" d="M21.0019 24V53.9992C21.0019 55.6561 22.345 56.9992 24.0019 56.9992H46.0019C47.6588 56.9992 49.0019 55.6561 49.0019 53.9992V24C49.0019 22.3432 47.6588 21 46.0019 21H24.0019C22.345 21 21.0019 22.3431 21.0019 24ZM35.0019 30C35.0019 29.4477 35.4496 29 36.0019 29H44.0019C44.5542 29 45.0019 29.4477 45.0019 30C45.0019 30.5523 44.5542 31 44.0019 31H36.0019C35.4496 31 35.0019 30.5523 35.0019 30ZM36.0019 33C35.4496 33 35.0019 33.4477 35.0019 34C35.0019 34.5523 35.4496 35 36.0019 35H44.0019C44.5542 35 45.0019 34.5523 45.0019 34C45.0019 33.4477 44.5542 33 44.0019 33H36.0019ZM35.0019 43C35.0019 42.4477 35.4496 42 36.0019 42H44.0019C44.5542 42 45.0019 42.4477 45.0019 43C45.0019 43.5523 44.5542 44 44.0019 44H36.0019C35.4496 44 35.0019 43.5523 35.0019 43ZM36.0019 46C35.4496 46 35.0019 46.4477 35.0019 47C35.0019 47.5523 35.4496 48 36.0019 48H44.0019C44.5542 48 45.0019 47.5523 45.0019 47C45.0019 46.4477 44.5542 46 44.0019 46H36.0019ZM27.0019 43V46H30.0019V43H27.0019ZM26.0019 41H31.0019C31.5542 41 32.0019 41.4477 32.0019 42V47C32.0019 47.5523 31.5542 48 31.0019 48H26.0019C25.4496 48 25.0019 47.5523 25.0019 47V42C25.0019 41.4477 25.4496 41 26.0019 41ZM32.709 30.7071C33.0995 30.3166 33.0995 29.6834 32.709 29.2929C32.3185 28.9024 31.6853 28.9024 31.2948 29.2929L28.0019 32.5858L26.709 31.2929C26.3185 30.9024 25.6853 30.9024 25.2948 31.2929C24.9042 31.6834 24.9042 32.3166 25.2948 32.7071L28.0019 35.4142L32.709 30.7071Z" fill="#3AACF2"/>
</svg>
