<svg width="42" height="42" viewBox="0 0 42 42" fill="none" xmlns="http://www.w3.org/2000/svg">
<path fill-rule="evenodd" clip-rule="evenodd" d="M29.6032 12.0844C29.6032 15.1125 28.8507 19.0619 27.6936 18.4623C26.8169 21.3276 24.1512 23.4115 20.9988 23.4115C17.3703 23.4115 14.3867 20.6508 14.0337 17.1154C12.8851 15.105 11.378 11.0777 15.2518 7.93764C15.321 7.9148 15.3638 7.72636 15.4271 7.44781C15.6662 6.39518 16.1978 4.05566 19.5478 4.50229C22.1319 4.84682 29.6032 6.18054 29.6032 12.0844ZM26.2733 13.9929C26.2733 13.9929 25.8781 15.1494 26.2487 16.4389C26.234 19.3258 23.8891 21.6615 20.9988 21.6615C18.1661 21.6615 15.8573 19.4181 15.7525 16.611C15.8795 16.1299 15.879 15.3148 15.8783 14.4096C15.8773 12.776 15.8761 10.849 16.6239 10.0624C21.864 13.5524 26.2733 13.9929 26.2733 13.9929Z" fill="#002340"/>
<path d="M11.375 31.5C11.375 30.553 11.8766 29.7231 12.6285 29.2614C12.6007 29.1561 12.5738 29.0463 12.548 28.9335C12.4275 28.4071 12.3182 27.7668 12.2379 27.124C12.1636 26.5284 12.1121 25.9128 12.1021 25.3689C8.40869 26.8187 5.25 29.3454 5.25 31.9987V36.75H36.75V31.9987C36.75 29.4578 33.8533 27.033 30.3642 25.5588L30.3649 25.5829C30.3798 26.1168 30.3499 26.7289 30.2928 27.3186C30.24 27.8642 30.1622 28.4089 30.0688 28.875H30.625C30.9564 28.875 31.2594 29.0623 31.4076 29.3587L32.2826 31.1087C32.3434 31.2302 32.375 31.3642 32.375 31.5V33.25C32.375 33.7333 31.9833 34.125 31.5 34.125H29.75V32.375H30.625V31.7066L30.0842 30.625H27.6658L27.125 31.7066V32.375H28V34.125H26.25C25.7667 34.125 25.375 33.7333 25.375 33.25V31.5C25.375 31.3642 25.4066 31.2302 25.4674 31.1087L26.3424 29.3587C26.4906 29.0623 26.7936 28.875 27.125 28.875H28.2758C28.2948 28.7998 28.3141 28.7165 28.3335 28.6251C28.421 28.2125 28.4987 27.6899 28.551 27.1501C28.6032 26.6096 28.628 26.0733 28.6156 25.632C28.6093 25.411 28.5942 25.2274 28.5724 25.0862C28.5534 24.9621 28.5341 24.9049 28.53 24.8926C28.53 24.8925 28.53 24.8927 28.53 24.8926C28.5292 24.8902 28.5289 24.8895 28.5296 24.8908C28.5296 24.8906 28.5297 24.891 28.5296 24.8908L28.5328 24.8899C28.0652 24.7448 27.5943 24.618 27.125 24.511C26.6851 24.4108 26.2303 25.0164 26.0306 25.3957H22.4745C21.6955 25.3959 21.2992 25.3958 20.9097 25.3957H20.8961C20.4981 25.3957 20.1021 25.3956 19.3059 25.3957H15.75C15.7256 25.3494 15.7007 25.2997 15.6748 25.2482C15.4897 24.879 15.2611 24.4231 14.875 24.511C14.5382 24.5878 14.2006 24.6747 13.864 24.7713C13.8542 24.9009 13.8494 25.0555 13.8505 25.2328C13.8536 25.7166 13.8999 26.3094 13.9745 26.9073C14.049 27.5041 14.149 28.0851 14.2538 28.543C14.2843 28.6759 14.3142 28.7944 14.3429 28.8972C15.6306 29.0652 16.625 30.1665 16.625 31.5C16.625 32.9498 15.4498 34.125 14 34.125C12.5502 34.125 11.375 32.9498 11.375 31.5Z" fill="#002340"/>
<path d="M14.875 31.5002C14.875 32.0026 14.4711 32.388 14 32.388C13.5289 32.388 13.125 32.0026 13.125 31.5002C13.125 30.9977 13.5289 30.6123 14 30.6123C14.4711 30.6123 14.875 30.9977 14.875 31.5002Z" fill="#002340"/>
</svg>
