<svg width="26" height="27" viewBox="0 0 26 27" fill="none" xmlns="http://www.w3.org/2000/svg">
<path fill-rule="evenodd" clip-rule="evenodd" d="M12.8569 18.6628C14.9997 18.6628 19.2853 13.6418 19.2853 10.0915C19.2853 6.54119 16.4072 3.66309 12.8569 3.66309C9.30655 3.66309 6.42844 6.54119 6.42844 10.0915C6.42844 13.6418 10.7141 18.6628 12.8569 18.6628ZM12.8569 12.2342C14.0403 12.2342 14.9997 11.2748 14.9997 10.0914C14.9997 8.90794 14.0403 7.94857 12.8569 7.94857C11.6734 7.94857 10.7141 8.90794 10.7141 10.0914C10.7141 11.2748 11.6734 12.2342 12.8569 12.2342Z" fill="#0260AE"/>
<path opacity="0.4" fill-rule="evenodd" clip-rule="evenodd" d="M7.54556 16.6631C6.54309 16.9113 5.63394 17.473 4.95985 18.2819L4.41866 18.9314C3.08945 20.5264 4.22369 22.9481 6.29998 22.9481H19.4138C21.4901 22.9481 22.6243 20.5264 21.2951 18.9314L20.7539 18.2819C20.0798 17.473 19.1707 16.9113 18.1682 16.6631C18.1577 16.6764 18.1473 16.6898 18.1368 16.7031C17.3999 17.6379 16.5659 18.4822 15.7282 19.1091C14.9539 19.6887 13.9306 20.2695 12.8569 20.2695C11.7831 20.2695 10.7599 19.6887 9.98552 19.1091C9.14785 18.4822 8.31385 17.6379 7.57697 16.7031C7.5665 16.6898 7.55603 16.6764 7.54556 16.6631Z" fill="#0260AE"/>
</svg>
