<svg width="21" height="21" viewBox="0 0 21 21" fill="none" xmlns="http://www.w3.org/2000/svg">
<path d="M18.375 16.625V15.1848C18.375 14.4692 17.9393 13.8257 17.2749 13.56L15.4951 12.848C14.65 12.51 13.6869 12.8762 13.2799 13.6902L13.125 14C13.125 14 10.9375 13.5625 9.1875 11.8125C7.4375 10.0625 7 7.875 7 7.875L7.30976 7.72012C8.12383 7.31308 8.49 6.34999 8.15197 5.50494L7.44003 3.72507C7.17427 3.06066 6.53078 2.625 5.81519 2.625H4.375C3.4085 2.625 2.625 3.4085 2.625 4.375C2.625 12.107 8.89301 18.375 16.625 18.375C17.5915 18.375 18.375 17.5915 18.375 16.625Z" fill="white"/>
<path fill-rule="evenodd" clip-rule="evenodd" d="M10.7188 6.125C10.7188 5.76256 11.0126 5.46875 11.375 5.46875C11.9208 5.46875 12.4613 5.57625 12.9655 5.78513C13.4698 5.994 13.928 6.30014 14.3139 6.68609C14.6999 7.07203 15.006 7.53021 15.2149 8.03447C15.4237 8.53873 15.5312 9.07919 15.5312 9.625C15.5312 9.98744 15.2374 10.2812 14.875 10.2812C14.5126 10.2812 14.2188 9.98744 14.2188 9.625C14.2188 9.25155 14.1452 8.88176 14.0023 8.53674C13.8594 8.19172 13.6499 7.87823 13.3858 7.61416C13.1218 7.3501 12.8083 7.14063 12.4633 6.99772C12.1182 6.85481 11.7484 6.78125 11.375 6.78125C11.0126 6.78125 10.7188 6.48744 10.7188 6.125Z" fill="white"/>
<path fill-rule="evenodd" clip-rule="evenodd" d="M10.7188 2.625C10.7188 2.26256 11.0126 1.96875 11.375 1.96875C12.3804 1.96875 13.376 2.16678 14.3049 2.55155C15.2338 2.93631 16.0778 3.50027 16.7888 4.21121C17.4997 4.92216 18.0637 5.76618 18.4485 6.69508C18.8332 7.62398 19.0312 8.61957 19.0312 9.625C19.0312 9.98744 18.7374 10.2812 18.375 10.2812C18.0126 10.2812 17.7188 9.98744 17.7188 9.625C17.7188 8.79193 17.5547 7.96701 17.2359 7.19735C16.9171 6.42769 16.4498 5.72836 15.8607 5.13929C15.2716 4.55022 14.5723 4.08294 13.8026 3.76414C13.033 3.44534 12.2081 3.28125 11.375 3.28125C11.0126 3.28125 10.7188 2.98744 10.7188 2.625Z" fill="white"/>
</svg>
