<svg width="22" height="21" viewBox="0 0 22 21" fill="none" xmlns="http://www.w3.org/2000/svg">
<path d="M0.5 3.28125C0.5 1.46907 1.96907 0 3.78125 0H18.2188C20.0309 0 21.5 1.46907 21.5 3.28125V17.7188C21.5 19.5309 20.0309 21 18.2188 21H3.78125C1.96907 21 0.5 19.5309 0.5 17.7188V3.28125Z" fill="#0077FF"/>
<path d="M5.75 10.29C5.75 7.9135 5.75 6.727 6.485 5.985C7.2305 5.25 8.417 5.25 10.79 5.25H11.21C13.5865 5.25 14.773 5.25 15.515 5.985C16.25 6.7305 16.25 7.917 16.25 10.29V10.71C16.25 13.0865 16.25 14.273 15.515 15.015C14.7695 15.75 13.583 15.75 11.21 15.75H10.79C8.4135 15.75 7.227 15.75 6.485 15.015C5.75 14.2695 5.75 13.083 5.75 10.71V10.29Z" fill="#0077FF"/>
<path d="M11.4668 13.7812C7.87937 13.7812 5.83392 11.3223 5.75 7.224H7.5542C7.61189 10.2294 8.93357 11.5009 9.98252 11.7636V7.224H11.6766V9.81433C12.7098 9.70399 13.8007 8.52179 14.1678 7.21875H15.8566C15.7189 7.89327 15.4439 8.53209 15.0486 9.0953C14.6534 9.65852 14.1464 10.134 13.5594 10.4921C14.2145 10.8187 14.793 11.2807 15.2567 11.8477C15.7205 12.4146 16.059 13.0737 16.25 13.7812H14.3881C13.9895 12.536 12.993 11.5692 11.6766 11.4379V13.7812H11.472H11.4668Z" fill="white"/>
</svg>
